mtllib bag.mtl
# vertices
v -32 112 64
v -32 32 64
v -32 32 72
v -32 112 72
v -24 104 80
v -24 40 80
v 24 40 80
v 24 104 80
v 32 32 72
v 32 112 72
v 32 32 64
v 32 112 64
v -64 128 0
v -64 16 0
v -64 16 48
v -64 128 48
v -48 128 64
v -56 136 56
v -56 8 56
v -48 16 64
v -48 -0 0
v -48 -0 48
v -48 144 0
v -48 144 48
v 48 16 64
v 48 128 64
v 48 -0 48
v 56 8 56
v 56 136 56
v 48 144 48
v 48 -0 0
v 48 144 0
v 64 128 0
v 64 16 0
v 64 16 48
v 64 128 48
v 36 24 -24
v 36 8 0
v 36 13 0
v 36 24 -16
v 52 8 0
v 52 13 0
v 52 24 -16
v 52 24 -24
v -52 24 -24
v -52 8 0
v -52 13 0
v -52 24 -16
v -36 8 0
v -36 13 0
v -36 24 -16
v -36 24 -24
v 36 120 -24
v 36 24 -24
v 36 24 -16
v 36 120 -16
v 52 24 -16
v 52 120 -16
v 52 24 -24
v 52 120 -24
v -52 120 -24
v -52 24 -24
v -52 24 -16
v -52 120 -16
v -36 24 -16
v -36 120 -16
v -36 24 -24
v -36 120 -24
v -52 136 0
v -52 120 -24
v -52 120 -16
v -52 131 0
v -36 131 0
v -36 136 0
v -36 120 -16
v -36 120 -24
v 36 136 0
v 36 120 -24
v 36 120 -16
v 36 131 0
v 52 131 0
v 52 136 0
v 52 120 -16
v 52 120 -24

# texture coordinates
vt 64 -112
vt 64 -32
vt 72 -32
vt 72 -112
vt 39.597980499267578 -104
vt 28.284271240234375 -112
vt 28.284271240234375 -32
vt 39.597980499267578 -40
vt 24 -40
vt 24 -104
vt -24 -104
vt -24 -40
vt 32 -73.539108276367188
vt 24 -84.852813720703125
vt -24 -84.852813720703125
vt -32 -73.539108276367188
vt 24 -16.970561981201172
vt 32 -28.284271240234375
vt -32 -28.284271240234375
vt -24 -16.970561981201172
vt -32 64
vt -32 72
vt 32 72
vt 32 64
vt -32 -112
vt -32 -32
vt 32 -32
vt 32 -112
vt -28.284271240234375 -32
vt -28.284271240234375 -112
vt -39.597980499267578 -104
vt -39.597980499267578 -40
vt -64 -32
vt -64 -112
vt -72 -112
vt -72 -32
vt -128 -3.6259447592883187e-14
vt -16 -4.5324309491103984e-15
vt -16 -48
vt -128 -48
vt -128 -12.25483226776123
vt -136 -0.94112396240234375
vt -128 10.372584342956543
vt -16 10.372584342956543
vt -8 -0.94112396240234375
vt -16 -12.25483226776123
vt -56.56854248046875 2.4726896299398504e-06
vt -33.941123962402344 1.4836138007012778e-06
vt -33.941127777099609 -48
vt -45.254837036132812 -55.999996185302734
vt -56.568546295166016 -47.999996185302734
vt -67.882247924804688 2.9672276014025556e-06
vt -45.254833221435547 1.9781516584771452e-06
vt -45.254837036132812 -47.999996185302734
vt -56.568546295166016 -55.999996185302734
vt -67.882255554199219 -47.999996185302734
vt 48 -16
vt 48 -128
vt -48 -128
vt -48 -16
vt 48 -33.313705444335938
vt 56 -44.627414703369141
vt 48 -55.941123962402344
vt -48 -55.941123962402344
vt -56 -44.627414703369141
vt -48 -33.313705444335938
vt -56 56.058876037597656
vt -48 67.372581481933594
vt 48 67.372581481933594
vt 56 56.058876037597656
vt 48 44.745166778564453
vt -48 44.745166778564453
vt 48 0
vt 48 -48
vt -48 -48
vt -48 0
vt -48 -4.079188023605948e-14
vt 48 -4.079188023605948e-14
vt -64 -128
vt -64 -16
vt 64 -16
vt 64 -128
vt 48 -144
vt -48 -144
vt 16 10.372584342956543
vt 128 10.372584342956543
vt 136 -0.94112396240234375
vt 128 -12.25483226776123
vt 16 -12.25483226776123
vt 8 -0.94112396240234375
vt -48 -45.254833221435547
vt 0 -45.254833221435547
vt 0 -67.882247924804688
vt -48 -67.882247924804688
vt -56 -56.56854248046875
vt 0 -56.56854248046875
vt -48 -56.56854248046875
vt -56 -45.254833221435547
vt -48 -33.941123962402344
vt 0 -33.941123962402344
vt 128 -3.6259447592883187e-14
vt 128 -48
vt 16 -48
vt 16 -4.5324309491103984e-15
vt 12 -24
vt 12 -8
vt 19.5 -13
vt 20 -24
vt 52 -8.5384616851806641
vt 52 -13.871794700622559
vt 36 -13.871794700622559
vt 36 -8.5384616851806641
vt 52 -4.3333334922790527
vt 52 -15
vt 36 -15
vt 36 -4.3333334922790527
vt 52 -16
vt 52 -24
vt 36 -24
vt 36 -16
vt -52 -19
vt -52 -3.0000002384185791
vt -36 -3.0000002384185791
vt -36 -19
vt -12 -24
vt -20 -24
vt -19.5 -13
vt -12 -8
vt -36 -8.5384616851806641
vt -36 -13.871794700622559
vt -52 -13.871794700622559
vt -52 -8.5384616851806641
vt -36 -4.3333334922790527
vt -36 -15
vt -52 -15
vt -52 -4.3333334922790527
vt -36 -16
vt -36 -24
vt -52 -24
vt -52 -16
vt 36 -19
vt 36 -3.0000002384185791
vt 52 -3.0000002384185791
vt 52 -19
vt -24 -120
vt -24 -24
vt -16 -24
vt -16 -120
vt 52 -120
vt 36 -120
vt -52 -120
vt -36 -120
vt 24 -120
vt 16 -120
vt 16 -24
vt 24 -24
vt -204 -136
vt -204 -120
vt -196 -120
vt -196.5 -131
vt -36 -138.82052612304688
vt -36 -144.15385437011719
vt -52 -144.15385437011719
vt -52 -138.82052612304688
vt -36 -30.000001907348633
vt -36 -40.666667938232422
vt -52 -40.666667938232422
vt -52 -30.000001907348633
vt 36 -41
vt 36 -25
vt 52 -25
vt 52 -41
vt 204 -136
vt 196.5 -131
vt 196 -120
vt 204 -120
vt 52 -138.82052612304688
vt 52 -144.15385437011719
vt 36 -144.15385437011719
vt 36 -138.82052612304688
vt 52 -30.000001907348633
vt 52 -40.666667938232422
vt 36 -40.666667938232422
vt 36 -30.000001907348633
vt -52 -41
vt -52 -25
vt -36 -25
vt -36 -41

# face normals
vn -1 0 -0
vn -0.70710678118654746 0 0.70710678118654746
vn 0 0 1
vn 0 -0.70710678118654746 0.70710678118654746
vn 0 0.70710678118654746 0.70710678118654746
vn 0 -1 -0
vn 0 1 -0
vn 0 0 -1
vn 0.70710678118654746 0 0.70710678118654746
vn 1 0 -0
vn -0.70710678118654757 0 0.70710678118654757
vn -0.70710678118654757 -0.70710678118654757 -0
vn -0.70710678118654757 0.70710678118654757 -0
vn 0 -0.70710678118654757 0.70710678118654757
vn 0.70710678118654746 0.70710678118654746 -0
vn 0.70710678118654757 -0.70710678118654757 -0
vn 0 0.82404192419936761 0.56652882288706519
vn 0 -0.83205029433784372 -0.55470019622522915
vn 0 -0.82404192419936761 0.56652882288706519
vn 0 0.83205029433784372 -0.55470019622522915

# objects
o entity0_brush0
usemtl __TB_empty
f 1/1/1 2/2/1 3/3/1 4/4/1
usemtl __TB_empty
f 5/5/2 4/6/2 3/7/2 6/8/2
usemtl __TB_empty
f 7/9/3 8/10/3 5/11/3 6/12/3
usemtl __TB_empty
f 9/13/4 7/14/4 6/15/4 3/16/4
usemtl __TB_empty
f 8/17/5 10/18/5 4/19/5 5/20/5
usemtl __TB_empty
f 11/21/6 9/22/6 3/23/6 2/24/6
usemtl __TB_empty
f 10/23/7 12/24/7 1/21/7 4/22/7
usemtl __TB_empty
f 12/25/8 11/26/8 2/27/8 1/28/8
usemtl __TB_empty
f 9/29/9 10/30/9 8/31/9 7/32/9
usemtl __TB_empty
f 11/33/10 12/34/10 10/35/10 9/36/10

o entity0_brush1
usemtl __TB_empty
f 13/37/1 14/38/1 15/39/1 16/40/1
usemtl __TB_empty
f 17/41/11 18/42/11 16/43/11 15/44/11 19/45/11 20/46/11
usemtl __TB_empty
f 14/47/12 21/48/12 22/49/12 19/50/12 15/51/12
usemtl __TB_empty
f 23/52/13 13/53/13 16/54/13 18/55/13 24/56/13
usemtl __TB_empty
f 25/57/3 26/58/3 17/59/3 20/60/3
usemtl __TB_empty
f 27/61/14 28/62/14 25/63/14 20/64/14 19/65/14 22/66/14
usemtl __TB_empty
f 29/67/5 30/68/5 24/69/5 18/70/5 17/71/5 26/72/5
usemtl __TB_empty
f 31/73/6 27/74/6 22/75/6 21/76/6
usemtl __TB_empty
f 30/75/7 32/77/7 23/78/7 24/74/7
usemtl __TB_empty
f 33/79/8 34/80/8 31/76/8 21/73/8 14/81/8 13/82/8 23/83/8 32/84/8
usemtl __TB_empty
f 35/85/9 36/86/9 29/87/9 26/88/9 25/89/9 28/90/9
usemtl __TB_empty
f 36/91/15 33/92/15 32/93/15 30/94/15 29/95/15
usemtl __TB_empty
f 34/96/16 35/97/16 28/98/16 27/99/16 31/100/16
usemtl __TB_empty
f 33/101/10 36/102/10 35/103/10 34/104/10

o entity0_brush2
usemtl __TB_empty
f 37/105/1 38/106/1 39/107/1 40/108/1
usemtl __TB_empty
f 41/109/3 42/110/3 39/111/3 38/112/3
usemtl __TB_empty
f 42/113/17 43/114/17 40/115/17 39/116/17
usemtl __TB_empty
f 43/117/7 44/118/7 37/119/7 40/120/7
usemtl __TB_empty
f 44/121/18 41/122/18 38/123/18 37/124/18
usemtl __TB_empty
f 44/125/10 43/126/10 42/127/10 41/128/10

o entity0_brush3
usemtl __TB_empty
f 45/105/1 46/106/1 47/107/1 48/108/1
usemtl __TB_empty
f 49/129/3 50/130/3 47/131/3 46/132/3
usemtl __TB_empty
f 50/133/17 51/134/17 48/135/17 47/136/17
usemtl __TB_empty
f 51/137/7 52/138/7 45/139/7 48/140/7
usemtl __TB_empty
f 52/141/18 49/142/18 46/143/18 45/144/18
usemtl __TB_empty
f 52/125/10 51/126/10 50/127/10 49/128/10

o entity0_brush4
usemtl __TB_empty
f 53/145/1 54/146/1 55/147/1 56/148/1
usemtl __TB_empty
f 57/118/3 58/149/3 56/150/3 55/119/3
usemtl __TB_empty
f 59/139/6 57/140/6 55/137/6 54/138/6
usemtl __TB_empty
f 58/117/7 60/118/7 53/119/7 56/120/7
usemtl __TB_empty
f 60/151/8 59/139/8 54/138/8 53/152/8
usemtl __TB_empty
f 60/153/10 58/154/10 57/155/10 59/156/10

o entity0_brush5
usemtl __TB_empty
f 61/145/1 62/146/1 63/147/1 64/148/1
usemtl __TB_empty
f 65/138/3 66/152/3 64/151/3 63/139/3
usemtl __TB_empty
f 67/119/6 65/120/6 63/117/6 62/118/6
usemtl __TB_empty
f 66/137/7 68/138/7 61/139/7 64/140/7
usemtl __TB_empty
f 68/150/8 67/119/8 62/118/8 61/149/8
usemtl __TB_empty
f 68/153/10 66/154/10 65/155/10 67/156/10

o entity0_brush6
usemtl __TB_empty
f 69/157/1 70/158/1 71/159/1 72/160/1
usemtl __TB_empty
f 73/161/3 74/162/3 69/163/3 72/164/3
usemtl __TB_empty
f 75/165/19 73/166/19 72/167/19 71/168/19
usemtl __TB_empty
f 76/119/6 75/120/6 71/117/6 70/118/6
usemtl __TB_empty
f 74/169/20 76/170/20 70/171/20 69/172/20
usemtl __TB_empty
f 74/173/10 73/174/10 75/175/10 76/176/10

o entity0_brush7
usemtl __TB_empty
f 77/157/1 78/158/1 79/159/1 80/160/1
usemtl __TB_empty
f 81/177/3 82/178/3 77/179/3 80/180/3
usemtl __TB_empty
f 83/181/19 81/182/19 80/183/19 79/184/19
usemtl __TB_empty
f 84/139/6 83/140/6 79/137/6 78/138/6
usemtl __TB_empty
f 82/185/20 84/186/20 78/187/20 77/188/20
usemtl __TB_empty
f 82/173/10 81/174/10 83/175/10 84/176/10

