<?xml version="1.0" encoding="UTF-8" standalone="no"?>
<!-- Created with Inkscape (http://www.inkscape.org/) -->

<svg
   width="48"
   height="48"
   viewBox="0 0 48 48"
   version="1.1"
   id="svg1"
   sodipodi:docname="lq-vect-main.svg"
   inkscape:version="1.3.2 (091e20ef0f, 2023-11-25, custom)"
   xml:space="preserve"
   xmlns:inkscape="http://www.inkscape.org/namespaces/inkscape"
   xmlns:sodipodi="http://sodipodi.sourceforge.net/DTD/sodipodi-0.dtd"
   xmlns="http://www.w3.org/2000/svg"
   xmlns:svg="http://www.w3.org/2000/svg"><sodipodi:namedview
     id="namedview1"
     pagecolor="#808080"
     bordercolor="#000000"
     borderopacity="0.25"
     inkscape:showpageshadow="2"
     inkscape:pageopacity="0.0"
     inkscape:pagecheckerboard="0"
     inkscape:deskcolor="#000000"
     inkscape:document-units="px"
     inkscape:zoom="22.627417"
     inkscape:cx="19.445436"
     inkscape:cy="39.907339"
     inkscape:window-width="2560"
     inkscape:window-height="1407"
     inkscape:window-x="0"
     inkscape:window-y="0"
     inkscape:window-maximized="1"
     inkscape:current-layer="svg1" /><defs
     id="defs1" /><g
     id="g446"
     transform="matrix(76.600774,0,0,70.766431,-14.301154,-13.168796)"
     inkscape:label="main"
     style="display:inline"><path
       fill-rule="evenodd"
       fill="#000000"
       stroke="#555555"
       stroke-width="0"
       opacity="1"
       d="m 0.18672017,0.54717591 c 6.2839e-4,0.0327496 0.0279363,0.0580139 0.0534804,0.0747328 0.0101898,0.007694 0.0238595,0.0103066 0.0334382,0.0184084 0.00476,0.0236816 2.6823e-4,0.0489505 0.009778,0.071987 0.0183971,0.0539787 0.0469826,0.10568928 0.0886278,0.14513619 0.003001,0.003198 0.0142602,0.012165 0.0155261,0.002567 -0.0160387,-0.0545103 -0.0460995,-0.10431691 -0.0588495,-0.16007916 -0.004257,-0.017279 -0.005217,-0.0368118 6.3631e-4,-0.0536352 0.0143411,-0.00231 0.0296301,-0.002756 0.043454,-0.008353 0.001557,0.0159977 -0.003838,0.0332715 -0.002391,0.0497579 -9.8913e-4,0.0531318 0.0190723,0.10672518 0.0555987,0.14534617 0.009761,0.005838 0.0181942,0.01739 0.0302381,0.0180893 0.002872,-0.002875 -0.003098,-0.008514 -0.003119,-0.0119644 -0.0150083,-0.0325217 -0.0253753,-0.0674728 -0.0276912,-0.10332456 0.003019,-0.0173028 -0.006245,-0.0341292 -0.00348,-0.0516903 0.001701,-0.0275063 -6.6179e-4,-0.057188 0.0114624,-0.0826073 0.0209821,-0.0178635 0.0158527,-0.0487538 0.0258109,-0.0721848 0.005919,-0.0158143 0.0102223,-0.0338962 0.0212437,-0.0467367 -0.001608,0.0152184 -0.0124146,0.0289888 -0.0140678,0.0446981 -0.002501,0.0110372 -0.005594,0.0227076 -0.002305,0.0336705 -0.001723,0.005601 -0.004225,0.0152999 0.001424,0.0188297 0.0152951,0.001191 0.024173,0.0152651 0.0330649,0.0258814 0.006967,0.001124 0.008867,-0.0104144 0.0138415,-0.0136558 0.005839,-0.007416 0.0151403,-0.0109209 0.0237272,-0.0131147 0.0045,-0.008332 -0.002907,-0.0175627 0.001302,-0.0258612 -3.4841e-4,-0.0241543 -0.0106868,-0.0463921 -0.0182405,-0.0687996 1.1963e-4,-0.005161 0.005308,0.004536 0.00563,0.005409 0.0135887,0.0266706 0.0216424,0.0557667 0.0262725,0.0851616 0.002509,0.0115917 0.009181,0.0211003 0.0171059,0.0293859 0.0108284,0.0316656 0.009793,0.0662376 0.009281,0.0993363 -0.001738,0.0116401 -0.005263,0.0230899 -0.002985,0.0348853 -0.003024,0.0355338 -0.0133408,0.0700386 -0.0283174,0.10229836 -0.001008,0.003028 -0.007059,0.0126588 8.1551e-4,0.0101693 0.0367247,-0.0164131 0.0566496,-0.0545665 0.0707743,-0.0903185 0.0148791,-0.0388436 0.0124929,-0.0812884 0.008827,-0.12186616 0.003878,-0.002619 0.0111878,0.00468 0.0158558,0.003662 0.009089,0.003406 0.0202214,4.2837e-4 0.0286767,0.004509 0.0103691,0.0344209 -0.004344,0.0694485 -0.0150551,0.10190509 -0.013782,0.0375324 -0.0438751,0.11071445 -0.0436022,0.11200366 0.002357,0.008608 0.0122728,-7.6442e-4 0.015446,-0.003368 0.044076,-0.0421478 0.0744485,-0.0976641 0.0916548,-0.15587928 0.007012,-0.0201136 0.001245,-0.0422517 0.007362,-0.0621884 0.0267461,-0.0132967 0.0547471,-0.0277927 0.0720224,-0.0534244 0.0254871,-0.030598 0.0138201,-0.076794 -0.0103956,-0.10440851 -0.0144272,-0.0172748 -0.0361004,-0.0307368 -0.0594965,-0.0260605 -0.0188255,0.007196 -0.0378018,-0.008621 -0.0411291,-0.0270211 -0.002119,-0.00876 -0.007599,-0.0213998 -7.3481e-4,-0.028956 0.0132661,0.004021 0.0228443,0.0168342 0.0347861,0.023858 0.0165545,0.0129422 0.0363869,0.0246982 0.0561913,0.0295914 -0.0295037,-0.0192273 -0.0596509,-0.0416937 -0.0728497,-0.0756817 -0.002618,-0.006444 -0.005275,-0.0149754 -0.0140776,-0.0139751 -0.0220077,-0.004983 -0.0414708,0.0146223 -0.0427837,0.0357194 -0.003949,0.0253257 -3.1318e-4,0.0537927 0.0157392,0.0744184 0.0102637,0.002936 0.0210444,-0.00533 0.0318187,-0.003767 0.0314223,-0.004365 0.0585294,0.0213054 0.0643802,0.0508032 0.005484,0.0242459 -0.008786,0.0487568 -0.0294224,0.0610823 -0.007215,0.006201 -0.0238205,0.0147684 -0.0278369,0.001125 -0.0135118,-0.0291222 -0.0346932,-0.0543751 -0.046634,-0.0842813 0.002182,-0.004879 0.008187,-0.0119286 -4.9856e-4,-0.0145808 -0.008278,-0.006734 -0.0179381,-0.0141766 -0.0216326,-0.024482 0.002019,-0.006843 0.009293,-0.017883 0.002043,-0.0236956 -0.004036,-0.001766 -0.010171,0.003347 -0.0130173,8.5824e-4 0.004989,-0.019318 0.00761,-0.0397482 -1.311e-5,-0.0588306 -0.005973,-0.0183068 0.00492,-0.036088 0.004088,-0.0541728 -0.00198,-0.009004 -0.012795,-0.009094 -0.0196722,-0.006799 -0.008283,-0.0140626 -0.0128363,-0.0310488 -0.0238468,-0.0439102 -0.007977,-0.0136479 -0.022179,-0.0246661 -0.0259594,-0.0403064 0.001372,-0.0117867 0.0112057,-0.0243273 0.006304,-0.036086 -0.0103606,-0.005428 -0.0155575,0.0113006 -0.0238817,0.0141518 -0.0136918,-0.006644 -0.023053,-0.025068 -0.0404647,-0.0244433 -0.0174136,-6.2609e-4 -0.0267729,0.0178057 -0.0404683,0.024443 -0.008321,-0.002855 -0.0135201,-0.0195795 -0.0238793,-0.0141512 -0.007098,0.0150959 0.0142563,0.0320526 0.002213,0.0462134 -0.0169559,0.023109 -0.0347731,0.0460791 -0.0446469,0.0732604 -0.004593,0.002059 -0.0110223,-0.002993 -0.0158895,0.001146 -0.0119226,0.00917 -6.417e-5,0.0257306 1.3049e-4,0.0375166 0.004135,0.0229758 -0.0120979,0.0448032 -0.003789,0.0677509 2.522e-5,0.004665 0.004154,0.0110142 0.002266,0.0150411 -0.00589,-0.002557 -0.01729,-0.004037 -0.0153924,0.005845 -3.173e-4,0.008118 0.009563,0.0161938 0.00156,0.0233019 -0.006639,0.00833 -0.0152528,0.0148242 -0.0229782,0.0217671 7.685e-4,0.005439 0.007414,0.0103432 0.002144,0.0157861 -0.0135039,0.0289829 -0.0336648,0.0543251 -0.0468654,0.0833482 -0.0112945,0.008312 -0.0239099,-0.005427 -0.0329593,-0.0116508 -0.0237359,-0.0162919 -0.0297325,-0.0510241 -0.0142523,-0.0750095 0.0120633,-0.0257653 0.042943,-0.0362026 0.0695377,-0.0296249 0.007527,0.001038 0.0192477,0.007974 0.0230368,-0.002781 0.0148598,-0.0269845 0.0193004,-0.0629545 0.003997,-0.0906292 -0.008977,-0.0138846 -0.0294469,-0.0193685 -0.0438169,-0.0114239 -0.0102253,0.0221824 -0.0215538,0.0449128 -0.0417608,0.0599386 -0.0109575,0.00999 -0.0251385,0.0186885 -0.0362564,0.026969 0.0346111,-0.008612 0.0600005,-0.0351692 0.0891336,-0.0536072 0.007714,6.4359e-4 0.00427,0.0133763 0.003826,0.0185116 -0.002908,0.0179367 -0.0140922,0.0406088 -0.0353613,0.0389277 -0.0194685,-0.004923 -0.0410159,-0.001652 -0.0558844,0.0126271 -0.0226432,0.0187577 -0.0375886,0.0478494 -0.0369236,0.0775572 z m 0.39430497,-0.0295561 c -7.8053e-4,-0.004404 0.001853,-0.0180676 0.008151,-0.0117923 0.007244,0.009214 0.0184081,0.0149456 0.0228993,0.0261215 0.00688,0.0107712 0.0162067,0.0211744 0.017024,0.0343774 0.006186,0.010837 0.0134751,0.0213066 0.0195132,0.032021 -0.001757,0.00632 -0.0117875,9.712e-5 -0.0155437,-9.5906e-4 -0.0202892,-0.007896 -0.0335139,-0.0265566 -0.0427431,-0.0452332 0.002184,-0.0112642 -0.004902,-0.021436 -0.008164,-0.0318142 -4.1019e-4,-8.9271e-4 -8.462e-4,-0.00178 -0.001137,-0.002721 z M 0.55693124,0.34001667 c 0.0178438,-0.009015 0.0451571,0.003978 0.0418316,0.0257755 -0.001316,0.0118691 -0.0137549,0.0193255 -0.024945,0.0154869 -0.0148374,-0.002802 -0.0270079,-0.0167754 -0.0298142,-0.0310086 0.002265,-0.005206 0.007348,-0.009203 0.0129276,-0.0102538 z m -0.005969,0.10713295 c -0.007255,-0.004232 -0.008381,-0.0127117 -0.003604,-0.0194326 0.003986,-0.0103562 0.0163376,-0.0216022 0.0271181,-0.0125386 0.007766,0.005538 0.0174117,0.0121773 0.0147779,0.0233638 0.00127,0.008781 -0.00112,0.0264236 -0.0138304,0.0229827 -0.008939,-0.003007 -0.0177285,-0.007672 -0.0244616,-0.0143753 z m -0.0105123,-0.0807097 c 0.007807,0.0110742 0.0185804,0.0233453 0.0325197,0.026062 0.004611,0.001204 0.0158961,-0.001872 0.0158687,0.00529 -0.0127262,0.007784 -0.0276319,-0.002857 -0.0367448,-0.0118196 -0.00639,-0.00579 -0.0142197,-0.0157039 -0.0145016,-0.0236146 0.001197,0.001167 0.002006,0.002662 0.002858,0.004082 z m 0.001128,0.0867874 c -0.002869,-0.002229 -0.006441,-0.0105154 4.239e-4,-0.007165 0.0104255,0.0117713 0.0263873,0.0154291 0.039184,0.0236876 0.0044,0.007272 -0.007626,0.007744 -0.0118582,0.0054 -0.0113417,-0.003602 -0.0215797,-0.0117732 -0.0277497,-0.0219226 z M 0.54093531,0.29930389 c -0.007454,-0.003753 -0.017187,-0.009415 -0.0192183,-0.017918 0.0038,-0.0154756 0.0225809,-0.0217949 0.0356209,-0.0131967 0.0134091,0.004885 0.0282524,0.0185786 0.0218859,0.0339756 -0.0113962,0.004365 -0.0269557,7.6319e-4 -0.0382885,-0.002861 z m -0.007096,0.006314 c 0.0112694,0.00558 0.0246819,0.001147 0.0357782,0.005686 0.004982,0.006094 -0.007913,0.007 -0.0114176,0.006108 -0.0112501,-8.6589e-4 -0.0274982,-0.001341 -0.0332474,-0.0125477 0.001597,-0.002943 0.006773,7.5294e-4 0.008887,7.537e-4 z m -0.11414467,-0.005624 c -0.003704,-0.020621 0.0188846,-0.0328167 0.0360649,-0.0356172 0.0107717,-0.001252 0.0221757,0.008768 0.0222739,0.0192989 -0.0119603,0.0180935 -0.0367718,0.0230044 -0.0566965,0.0189929 -8.7725e-4,-6.3265e-4 -0.001395,-0.001644 -0.001642,-0.002675 z m 0.0203475,0.00933 c 0.0117938,0.001096 0.0229889,-0.003676 0.0342585,-0.005375 0.002668,0.00551 -0.008468,0.008458 -0.0120069,0.0104233 -0.0103153,0.002033 -0.0237197,0.006329 -0.0330292,3.29e-4 -0.00118,-0.005322 0.007545,-0.005615 0.0107776,-0.005377 z m -0.0275903,0.089674 c -0.005225,-0.005106 0.006534,-0.007023 0.009991,-0.006212 0.0157657,2.8725e-4 0.0275458,-0.0137495 0.0363362,-0.0250701 5.7302e-4,-0.001697 0.005945,-0.009321 0.003365,-0.002499 -0.006161,0.0158676 -0.0203969,0.0296105 -0.0365427,0.0346477 -0.004325,3.2129e-4 -0.009086,0.001045 -0.0131495,-8.666e-4 z m 0.01702,0.0649687 c 0.0109351,-0.004008 0.0206244,-0.0105053 0.0291192,-0.0181292 0.00697,-0.002596 0.001571,0.006145 -7.2723e-4,0.008054 -0.008016,0.0124501 -0.0229352,0.0242951 -0.0384164,0.0216854 -0.006279,-0.006184 0.006435,-0.009613 0.0100244,-0.0116102 z m -0.0127945,-0.0821316 c -0.0179289,-0.001983 -0.0207806,-0.0291871 -0.006266,-0.0380924 0.0127761,-0.010224 0.0348128,-0.008057 0.044805,0.004874 0.002705,0.007991 -0.006023,0.0156061 -0.0100631,0.0218886 -0.00733,0.007989 -0.0176245,0.0121844 -0.0284759,0.0113298 z m -0.002448,0.0761444 c -0.005331,-0.009162 -0.00441,-0.0215931 -0.001715,-0.0313556 0.007315,-0.00771 0.0196718,-0.0206013 0.0304801,-0.0115744 0.006653,0.006373 0.0155076,0.0172379 0.0113044,0.0267597 -0.009239,0.009965 -0.021781,0.0201483 -0.0358272,0.0198726 -0.001798,-6.9224e-4 -0.003127,-0.002191 -0.004242,-0.003702 z m -0.0591501,0.13403392 c 0.005497,-0.009517 0.0129949,-0.0185764 0.0165807,-0.0289024 0.001798,-0.0155102 0.0152223,-0.0266434 0.0216763,-0.0403099 0.008337,-0.004615 0.0125776,-0.0156862 0.0213801,-0.0187829 0.006881,0.006363 0.004201,0.0162439 2.1027e-4,0.0233748 -0.002547,0.008387 -0.007254,0.0164167 -0.005374,0.025415 -0.0106457,0.021087 -0.0267878,0.0414985 -0.0508905,0.0476155 -0.007728,0.002516 -0.009727,-0.002077 -0.003583,-0.00841 z"
       id="path124"
       sodipodi:nodetypes="cccccccccccccccccccccccccccccccccccccccccccccccccccccccccccccccccccccccccccccccccccccccccccccccccccccccccccccccccccccccccccccccccccccccccccccccccccccccccccccccccccccccccccccccccc"
       style="display:inline"
       inkscape:label="blender svg" /></g><path
     d="M 23.999978,3.0997913e-4 C 22.909493,-0.01904002 22.153629,0.90038448 21.326214,1.4920442 20.458795,2.2683838 20.07892,0.28644978 19.133875,0.70212958 c -0.600719,0.89764452 0.59061,1.86380922 0.3711,2.83483322 -0.964304,1.543559 -2.321353,2.859779 -3.150223,4.510888 -0.322785,0.52512 -0.40626,1.522604 -1.254314,1.104569 -1.02402,-0.04965 -1.031175,1.2450452 -0.675885,1.9134592 0.81852,1.817864 -0.643215,3.636268 -0.163335,5.463432 0.04095,0.391395 0.69426,1.566524 -0.18837,1.14003 -0.784154,-0.26685 -0.948359,0.663914 -0.565124,1.158104 0.593384,0.9021 -0.602655,1.485464 -1.143105,2.016224 -0.63963,0.30621 -0.799814,0.73002 -0.362535,1.298384 -0.871319,2.009819 -2.3890034,3.738508 -3.4364984,5.684562 -0.15465,0.876285 -1.168439,0.93282 -1.767104,0.471645 -1.442819,-0.783885 -2.853538,-2.100989 -2.791528,-3.877498 -0.012,-2.355029 2.128004,-4.367983 4.458012,-4.366768 1.03548,-0.185325 2.0510544,0.514845 3.0432894,0.249825 1.095944,-1.520954 1.538699,-3.567958 1.092344,-5.407197 -0.217065,-1.470869 -1.601564,-2.617228 -3.0996884,-2.382164 -0.88425,-0.07935 -1.075785,0.800955 -1.42284,1.408155 -1.078499,2.284213 -3.264688,3.655258 -5.319342,4.954752 1.934474,-0.38079 3.661603,-1.684529 5.295882,-2.802089 0.56493,-0.203579 1.18854,-1.174019 1.769805,-0.807524 0.2488344,1.285994 -0.332745,2.817718 -1.417425,3.593578 -1.173449,0.721995 -2.561158,-0.17943 -3.817543,0.309 -2.245798,0.688574 -3.9244625,2.808553 -4.4435673,5.062047 -0.6075746,2.209739 0.7708346,4.357093 2.5032133,5.616582 1.155735,1.027409 2.627714,1.515764 3.950413,2.253629 0.436515,1.249034 0.167295,2.710423 0.47331,4.025233 1.262339,4.164117 3.5503034,8.07787 6.7482564,11.052459 0.38919,0.308145 1.10019,1.205534 1.557075,0.632699 -0.679605,-2.585563 -2.062949,-4.974357 -3.087749,-7.452341 -0.942869,-2.426068 -2.246879,-5.128422 -1.350869,-7.760425 0.715275,-0.1389 1.468544,-0.162285 2.191214,-0.305625 0.37293,0.1065 1.267874,-0.673065 1.157549,0.06285 -0.211725,2.132654 -0.39888,4.309932 0.12615,6.418691 0.72237,2.977139 2.290619,5.928432 4.855962,7.686806 0.38673,0.253425 1.05153,0.81636 1.451715,0.50463 -1.084695,-2.346404 -2.119619,-4.810243 -2.370344,-7.428176 0.012,-1.11315 -0.0771,-2.217614 -0.330495,-3.311893 0.10755,-2.180894 -0.1065,-4.495948 0.7668,-6.558957 0.522539,-0.694319 1.202924,-1.361519 1.339589,-2.291144 0.296505,-1.901234 0.895289,-3.733543 1.734614,-5.463432 0.1233,-0.251895 0.8448,-1.373489 0.55902,-0.488804 -0.587985,1.445924 -1.25814,2.909068 -1.2798,4.502067 0.259155,0.60756 -0.252179,1.233644 0.0726,1.811594 0.49305,0.267405 1.177665,0.32343 1.596329,0.802785 0.466695,0.234945 0.7053,1.042694 1.18956,1.120829 0.484275,-0.07815 0.722879,-0.885884 1.189574,-1.120829 0.418665,-0.479355 1.103265,-0.53538 1.596329,-0.802785 0.32481,-0.57795 -0.186525,-1.204034 0.0726,-1.811594 -0.0216,-1.592999 -0.691814,-3.056143 -1.279799,-4.502067 -0.28578,-0.884685 0.435675,0.236909 0.55902,0.488804 0.839324,1.729889 1.438109,3.562198 1.734614,5.463432 0.13665,0.929625 0.817049,1.596825 1.339589,2.291144 0.873345,2.063009 0.659265,4.378063 0.7668,6.558957 -0.253335,1.094279 -0.34305,2.198743 -0.330495,3.311893 -0.250725,2.617933 -1.28565,5.081772 -2.370344,7.428176 0.400185,0.31173 1.064985,-0.251205 1.451714,-0.50463 2.565344,-1.758374 4.133593,-4.709667 4.855963,-7.686806 0.524984,-2.108759 0.337829,-4.286037 0.12615,-6.418691 -0.11025,-0.735855 0.784619,0.04365 1.157534,-0.06285 0.72267,0.1434 1.475954,0.166665 2.191229,0.305625 0.896009,2.632003 -0.408,5.334357 -1.350869,7.760425 -1.0248,2.477984 -2.408144,4.866778 -3.087749,7.452341 0.456885,0.572835 1.167885,-0.324554 1.557074,-0.632699 3.197954,-2.974589 5.485917,-6.888342 6.748257,-11.052459 0.306015,-1.31481 0.03675,-2.776199 0.473309,-4.025233 1.3227,-0.737865 2.794679,-1.22622 3.950413,-2.253629 1.732379,-1.259489 3.110789,-3.406843 2.503214,-5.616582 -0.519105,-2.253494 -2.197769,-4.373473 -4.443568,-5.062047 -1.256384,-0.48843 -2.644093,0.412995 -3.817543,-0.309 -1.084679,-0.77586 -1.666259,-2.307584 -1.417424,-3.593578 0.581265,-0.366495 1.204875,0.603945 1.769804,0.807524 1.634279,1.11756 3.361408,2.421299 5.295882,2.802089 -2.054654,-1.299494 -4.240842,-2.670539 -5.319342,-4.954752 -0.347055,-0.6072 -0.538589,-1.487535 -1.422839,-1.408155 -1.498124,-0.235064 -2.882623,0.911295 -3.099688,2.382164 -0.446355,1.839239 -0.003,3.886243 1.092344,5.407197 0.992235,0.26502 2.007809,-0.43515 3.043288,-0.249825 2.330009,-0.0012 4.469488,2.011739 4.458013,4.366768 0.06195,1.776509 -1.348709,3.093613 -2.791528,3.877498 -0.598665,0.461175 -1.612455,0.40464 -1.767104,-0.471645 -1.047495,-1.946054 -2.565179,-3.674743 -3.436514,-5.684562 0.437295,-0.568364 0.27711,-0.992174 -0.362519,-1.298384 -0.54045,-0.53076 -1.736489,-1.114124 -1.143105,-2.016224 0.383235,-0.49419 0.21903,-1.424954 -0.565125,-1.158104 -0.882629,0.426494 -0.229304,-0.748635 -0.188369,-1.14003 0.479879,-1.827164 -0.981855,-3.645568 -0.163335,-5.463432 0.355289,-0.668414 0.348134,-1.9630792 -0.675885,-1.9134592 -0.848054,0.418035 -0.931529,-0.579449 -1.254314,-1.104569 -0.82887,-1.651109 -2.185919,-2.967329 -3.150224,-4.510888 -0.219509,-0.971024 0.971805,-1.9371887 0.3711,-2.83483322 C 27.921081,0.28644978 27.541206,2.2683838 26.673786,1.4920442 25.846372,0.90038448 25.090507,-0.01898002 24.000008,3.0997913e-4 Z M 20.644465,5.5405568 c 0.751589,-0.0435 1.573289,0.509385 1.669184,1.287299 -0.473055,0.907455 -1.593974,1.315815 -2.569994,1.46712 -0.600795,-0.003 -1.468559,0.242685 -1.888919,-0.236055 -0.21957,-1.540754 1.519859,-2.331224 2.789729,-2.518364 z m 6.711041,0 c 1.269869,0.18714 3.009298,0.97761 2.789729,2.518364 -0.42036,0.47874 -1.288125,0.233325 -1.888919,0.236055 -0.97602,-0.151305 -2.096939,-0.559665 -2.569994,-1.46712 0.09585,-0.777914 0.917594,-1.330859 1.669184,-1.287299 z m -5.328132,2.811104 c 0.05445,0.03405 0.012,0.1104 0.03495,0.15948 -0.569205,0.672194 -1.593434,0.681704 -2.411174,0.807074 -0.355605,0.0924 -1.536734,-0.178905 -0.797039,-0.54663 1.074209,0.0165 2.124973,-0.189464 3.173248,-0.419924 z m 3.945223,0 c 1.048274,0.23046 2.099039,0.436394 3.173248,0.419924 0.739695,0.367725 -0.441435,0.639045 -0.797039,0.54663 -0.81774,-0.1254 -1.84197,-0.13485 -2.411174,-0.807074 0.02235,-0.04905 -0.0195,-0.12555 0.03495,-0.15948 z m -7.520471,2.3455782 c 0.16395,-0.0105 0.32667,-0.0045 0.483,0.02205 0.449504,0.0528 0.892919,0.18705 1.267169,0.447705 0.816839,0.404535 0.163455,1.282949 -0.26508,1.714454 -0.752055,1.036245 -2.876128,1.539974 -3.422743,0.0612 -0.423,-1.238984 0.789959,-2.170964 1.937654,-2.245499 z m 11.095719,0 c 1.147694,0.07455 2.360654,1.006515 1.937654,2.245499 -0.546615,1.478759 -2.670689,0.97503 -3.422743,-0.0612 -0.42855,-0.431505 -1.08192,-1.309919 -0.26508,-1.714454 0.37425,-0.260655 0.817664,-0.394875 1.267169,-0.447705 0.15633,-0.02595 0.31905,-0.03285 0.483,-0.02205 z m -8.400746,1.808414 c -0.449819,1.312275 -1.746329,2.468699 -3.139408,2.649389 -0.5217,0.22341 -1.217144,-0.428595 -0.35418,-0.50892 1.521239,0.19326 2.659229,-1.081184 3.493588,-2.140469 z m 5.705772,0 c 0.83436,1.059285 1.972349,2.333729 3.493588,2.140469 0.862965,0.0804 0.16752,0.73233 -0.354179,0.50892 -1.39308,-0.18069 -2.689589,-1.337114 -3.139409,-2.649389 z m -7.917745,3.493049 c 0.843179,-0.0174 1.632254,1.039319 1.645949,1.828079 -0.355275,0.817844 -1.31835,1.315604 -2.142719,1.595639 -0.88701,0.462314 -1.352609,-0.595455 -1.300109,-1.3221 -0.13695,-1.082279 0.827504,-1.894919 1.796879,-2.101618 z m 10.129719,0 c 0.969375,0.206699 1.933829,1.019339 1.796879,2.101618 0.0525,0.726645 -0.4131,1.784414 -1.300109,1.3221 -0.82437,-0.280035 -1.787444,-0.777795 -2.142719,-1.595639 0.0135,-0.78876 0.80277,-1.845464 1.645949,-1.828079 z M 20.998644,18.3567 c 0.0369,0.006 0.0657,0.02295 0.09075,0.05085 -0.432749,0.983595 -1.404404,1.832789 -2.484943,2.066609 -0.46863,0.272295 -1.34712,-0.20442 -0.5703,-0.550935 1.068599,-0.359729 2.051324,-0.957929 2.964553,-1.566494 z m 6.002682,0 c 0.91323,0.608565 1.895954,1.206765 2.964554,1.566494 0.776819,0.346515 -0.1017,0.82323 -0.5703,0.550935 -1.080539,-0.23382 -2.052194,-1.083014 -2.484944,-2.066609 0.02505,-0.0279 0.0537,-0.0444 0.09075,-0.05085 z m -9.51904,4.164388 c 0.95163,1.012799 -0.671669,2.203454 -0.425474,3.350518 -0.44826,1.126095 -1.358295,2.146979 -2.386364,2.827829 -0.59013,0.299625 -1.386704,0.863879 -2.023604,0.564704 0.285795,-0.835559 1.082369,-1.494719 1.441559,-2.342398 0.201945,-1.100265 0.98466,-1.919849 1.600379,-2.810444 0.535575,-0.545415 1.073055,-1.259339 1.793504,-1.590209 z m 13.035398,0 c 0.72045,0.33087 1.25793,1.044794 1.793504,1.590209 0.61572,0.890595 1.398435,1.710179 1.600379,2.810444 0.35919,0.847679 1.155765,1.506839 1.44156,2.342398 -0.6369,0.299175 -1.433475,-0.265079 -2.023604,-0.564704 -1.02807,-0.68085 -1.938104,-1.701734 -2.386364,-2.827829 0.246195,-1.147064 -1.377104,-2.337719 -0.425475,-3.350518 z"
     style="display:none;stroke-width:0.115579"
     id="path5"
     inkscape:label="bitmap svg" /></svg>
