<?xml version="1.0" encoding="utf-8"?>
<svg viewBox="0 0 500 500" xmlns="http://www.w3.org/2000/svg">
  <path style="fill-opacity: 1; stroke-width: 0.219032; fill: rgb(255, 255, 255);" d="M 158.021 497.295 C 156.805 496.351 155.477 495.314 155.071 494.991 C 154.666 494.665 153.559 493.86 152.613 493.201 C 151.666 492.54 150.783 491.868 150.646 491.707 C 150.512 491.547 149.627 490.875 148.68 490.215 C 146.5 488.696 144.332 486.532 142.786 484.328 C 142.121 483.38 140.57 481.61 139.34 480.393 C 138.107 479.175 136.562 477.403 135.908 476.455 C 135.252 475.509 134.584 474.624 134.422 474.487 C 134.26 474.352 133.598 473.468 132.946 472.52 C 132.299 471.571 131.634 470.687 131.473 470.552 C 131.311 470.417 130.644 469.532 129.991 468.585 C 129.335 467.636 128.566 466.616 128.275 466.317 C 127.988 466.019 126.895 464.308 125.848 462.515 C 124.799 460.72 123.541 458.822 123.051 458.297 C 121.906 457.068 116.36 447.804 115.169 445.136 C 114.669 444.011 113.371 441.63 112.288 439.844 C 111.204 438.06 108.512 432.669 106.308 427.87 C 104.101 423.067 101.787 418.359 101.163 417.408 C 100.539 416.457 99.893 414.907 99.727 413.966 C 99.561 413.022 98.239 409.815 96.791 406.838 C 94.259 401.641 90.665 391.879 90.665 390.203 C 90.665 389.761 90.233 388.453 89.708 387.294 C 88.246 384.076 86.732 378.596 86.732 376.514 C 86.732 375.488 86.368 373.587 85.926 372.294 C 84.627 368.5 84.198 364.235 83.94 352.473 C 83.776 344.975 83.882 340.562 84.273 338.796 C 84.953 335.712 84.674 335.202 81.55 333.819 C 80.393 333.309 78.73 332.202 77.85 331.362 C 76.972 330.522 75.178 329.515 73.859 329.122 C 71.29 328.358 60.6 323.138 60.166 322.432 C 60.021 322.2 58.881 321.555 57.631 321.002 C 53.125 319.008 48.675 315.905 44.999 312.197 C 42.941 310.122 40.592 307.947 39.78 307.365 C 36.43 304.971 31.525 299.584 28.265 294.721 C 25.167 290.101 21.834 283.216 21.834 281.437 C 21.834 281.076 21.171 279.537 20.358 278.014 C 19.1 275.651 18.884 274.714 18.884 271.579 C 18.884 269.559 18.663 267.771 18.392 267.605 C 17.698 267.174 17.744 254.723 18.445 254.29 C 19.226 253.807 20.828 250.096 20.841 248.741 C 20.86 246.898 24.683 240.184 24.244 237.562 C 23.702 234.305 26.076 234.645 26.354 232.648 C 26.783 229.57 29.333 228.254 31.145 226.53 C 31.859 225.849 32.985 224.519 33.648 223.571 C 35.312 221.185 36.012 220.321 38.552 217.474 C 41.861 213.773 42.569 213.086 44.452 211.76 C 45.398 211.096 46.886 209.837 47.759 208.968 C 49.558 207.175 52.934 205.132 54.805 204.701 C 55.498 204.541 56.715 203.847 57.51 203.157 C 58.304 202.467 59.839 201.677 60.922 201.401 C 62.004 201.122 64.215 200.462 65.837 199.934 C 69.674 198.683 74.416 198.689 78.373 199.956 C 80.068 200.498 82.28 200.94 83.291 200.94 C 84.301 200.94 86.542 201.397 88.265 201.954 C 91.706 203.065 93.949 202.803 95.846 201.061 C 96.375 200.574 97.585 199.635 98.533 198.975 C 102.923 195.911 105.5 192.073 109.597 182.49 C 112.02 176.821 112.633 174.235 113.105 167.731 C 113.414 163.447 112.722 159.745 111.523 159.285 C 110.909 159.049 102.465 164.154 100.779 165.779 C 100.49 166.059 99.477 166.823 98.533 167.477 C 97.585 168.132 96.479 169.026 96.075 169.464 C 95.669 169.902 93.898 171.223 92.14 172.402 C 90.382 173.58 88.833 174.692 88.698 174.869 C 88.565 175.048 86.351 176.596 83.782 178.312 C 81.213 180.026 78.78 181.789 78.373 182.23 C 77.97 182.67 76.863 183.561 75.916 184.213 C 74.971 184.862 74.08 185.559 73.939 185.758 C 73.516 186.358 66.189 190.457 60.922 193.043 C 58.217 194.37 54.74 195.687 53.196 195.965 C 51.649 196.244 49.451 196.925 48.309 197.477 C 46.124 198.532 44.452 198.777 44.452 198.045 C 44.452 197.805 45.225 197.241 46.17 196.792 C 47.117 196.342 48.49 195.417 49.227 194.734 C 49.963 194.054 52.376 192.508 54.59 191.299 C 56.803 190.091 58.971 188.559 59.407 187.895 C 59.841 187.23 61.056 186.246 62.107 185.711 C 63.155 185.174 64.313 184.444 64.679 184.089 C 65.046 183.732 66.121 182.915 67.068 182.27 C 68.012 181.628 70.037 179.838 71.566 178.297 C 73.095 176.754 75.086 174.972 75.989 174.334 C 77.697 173.13 82.946 167.724 84.225 165.85 C 84.627 165.26 85.318 164.446 85.758 164.04 C 88.308 161.692 94.566 150.605 98.25 141.901 C 100.796 135.884 101.088 135.401 102.716 134.453 C 104.593 133.359 110.797 132.063 114.149 132.061 C 118.858 132.061 128.75 136.762 131.087 140.111 C 131.678 140.96 132.53 141.986 132.978 142.393 C 135.016 144.24 138.855 154.276 139.905 160.498 C 140.75 165.496 140.985 175.642 140.349 179.539 C 138.808 188.995 138.224 191.706 137.059 194.833 C 136.363 196.704 135.505 199.118 135.155 200.201 C 133.095 206.567 127.706 215.208 125.799 215.208 C 125.479 215.208 123.803 214.575 122.076 213.8 C 116.211 211.169 112.907 210.67 103.13 210.938 C 92.736 211.221 89.934 211.653 84.597 213.789 C 76.436 217.052 71.639 220.46 68.05 225.54 C 67.382 226.486 66.215 227.927 65.453 228.737 C 63.072 231.282 61.671 233.854 60.127 238.502 C 57.523 246.345 56.576 257.234 57.995 263.03 C 59.642 269.757 62.508 276.22 65.112 279.082 C 65.526 279.535 66.404 280.68 67.062 281.626 C 68.557 283.771 68.867 284.081 71 285.555 C 71.947 286.211 72.831 286.896 72.966 287.078 C 73.101 287.259 75.511 288.78 78.322 290.456 C 81.132 292.133 83.725 293.798 84.083 294.155 C 84.441 294.515 86.205 295.632 88.003 296.638 C 90.907 298.264 91.565 298.444 93.911 298.248 C 96.967 297.995 98.533 296.862 98.533 294.91 C 98.533 294.182 98.954 293.205 99.47 292.738 C 99.987 292.27 100.691 291.184 101.037 290.323 C 101.383 289.465 102.586 287.21 103.713 285.316 C 104.84 283.423 106.142 280.86 106.606 279.62 C 107.071 278.383 108.009 276.723 108.694 275.93 C 109.379 275.139 110.568 273.246 111.341 271.721 C 112.114 270.196 113.046 268.645 113.41 268.277 C 113.776 267.906 115.26 265.391 116.71 262.687 C 119.152 258.127 121.895 253.672 122.617 253.091 C 122.785 252.956 123.213 252.134 123.563 251.264 C 123.915 250.395 126.281 245.671 128.821 240.768 C 131.36 235.865 133.438 231.419 133.438 230.891 C 133.438 229.689 131.803 226.428 130.77 225.57 C 129.431 224.456 129.863 223.168 131.938 222.109 C 133.006 221.563 134.391 220.613 135.012 219.998 C 135.634 219.382 136.918 218.331 137.862 217.666 C 140.471 215.831 142.376 213.782 144.742 210.274 C 145.923 208.521 147.259 206.758 147.708 206.351 C 149.558 204.684 149.735 203.614 148.622 200.844 C 145.908 194.085 145.03 187.919 146.589 186.578 C 148.103 185.278 149.09 185.21 152.179 186.198 C 158.194 188.121 159.288 187.276 157.622 181.998 C 156.612 178.795 155.001 171.953 154.139 167.209 C 153.38 163.04 153.458 155.639 154.287 153.109 C 154.666 151.951 155.321 149.78 155.743 148.287 C 156.164 146.793 156.928 145.12 157.445 144.565 C 159.171 142.71 159.496 141.497 159.496 136.89 C 159.494 132.242 158.743 126.872 157.326 121.402 C 156.897 119.744 156.547 117.732 156.547 116.93 C 156.547 116.128 155.891 114.244 155.092 112.743 C 153.847 110.409 153.705 109.781 154.111 108.375 C 154.368 107.469 154.58 105.661 154.58 104.358 C 154.58 101.786 155.158 100.326 156.714 98.961 C 158.125 97.725 159.687 97.435 162.61 97.876 C 164.008 98.085 166.136 98.28 167.342 98.309 L 169.533 98.359 L 171.872 92.743 C 175.624 83.731 179.663 76.184 185.074 68.062 C 189.305 61.71 193.201 56.395 194.421 55.31 C 194.571 55.175 195.228 54.288 195.877 53.343 C 196.528 52.395 197.193 51.51 197.353 51.375 C 197.514 51.238 198.182 50.352 198.836 49.405 C 199.489 48.46 200.298 47.403 200.629 47.06 C 200.965 46.716 201.835 45.332 202.569 43.985 C 203.3 42.637 204.053 41.534 204.236 41.534 C 204.42 41.534 204.81 41.004 205.106 40.357 C 205.651 39.162 205.589 38.85 202.992 29.483 C 202.545 27.862 201.988 26.179 201.754 25.743 C 200.993 24.324 199.812 17.738 199.812 14.919 C 199.812 11.748 200.712 10.539 203.073 10.539 C 206.025 10.539 213.419 16.229 215.875 20.389 C 216.506 21.457 217.112 21.855 218.109 21.855 C 218.862 21.855 219.478 21.68 219.478 21.469 C 219.478 21.255 220.157 20.681 220.988 20.188 C 221.821 19.699 223.424 18.373 224.552 17.248 C 225.682 16.121 227.381 14.657 228.328 13.992 C 229.273 13.329 230.822 11.992 231.768 11.024 C 233.612 9.135 236.375 7.138 240.53 4.688 C 242.895 3.291 243.491 3.158 247.432 3.158 C 251.26 3.158 252.073 3.326 254.634 4.639 C 256.226 5.451 257.65 6.291 257.797 6.507 C 257.948 6.72 258.845 7.431 259.792 8.083 C 260.739 8.735 262.067 9.84 262.742 10.539 C 263.419 11.235 264.746 12.34 265.692 12.994 C 266.639 13.647 267.746 14.528 268.149 14.953 C 268.556 15.375 270.105 16.711 271.593 17.918 C 273.079 19.126 274.654 20.506 275.09 20.984 C 276.017 21.996 277.792 22.122 278.649 21.24 C 278.978 20.9 279.789 19.849 280.45 18.901 C 282.341 16.2 284.731 13.994 287.713 12.194 C 291.469 9.933 294.371 10.053 295.695 12.529 C 296.389 13.83 294.795 21.476 292.165 29.465 C 289.038 38.96 289.014 38.603 293.281 45.072 C 295.278 48.102 297.358 51.035 297.907 51.59 C 298.452 52.147 299.437 53.378 300.095 54.326 C 300.752 55.272 301.642 56.38 302.075 56.786 C 302.505 57.193 303.39 58.299 304.041 59.245 C 304.69 60.193 305.363 61.078 305.535 61.213 C 306.147 61.701 312.146 70.883 314.212 74.497 C 317.796 80.773 321.013 87.323 323 92.391 C 325.282 98.217 326.122 98.981 329.334 98.172 C 332.157 97.46 335.773 97.469 337.135 98.19 C 339.814 99.61 341.616 103.046 340.931 105.435 C 340.667 106.357 340.676 107.606 340.956 108.568 C 341.35 109.924 341.192 110.601 339.937 113.004 C 339.125 114.562 338.459 116.306 338.459 116.876 C 338.459 117.449 338.022 120.268 337.488 123.143 C 335.689 132.852 335.383 135.325 335.589 138.493 C 335.76 141.084 336.08 142.045 337.373 143.82 C 338.241 145.01 338.955 146.338 338.961 146.771 C 338.966 147.204 339.518 149.11 340.186 151.003 C 341.221 153.931 341.403 155.326 341.405 160.35 C 341.407 166.334 340.938 169.429 338.675 178.397 C 338.016 181.016 337.475 184.06 337.475 185.163 C 337.475 186.94 337.605 187.164 338.64 187.164 C 339.28 187.164 341.168 186.728 342.83 186.196 C 345.183 185.444 346.116 185.347 347.021 185.758 C 348.341 186.361 349.276 188.094 349.276 189.945 C 349.276 192 347.874 197.045 346.456 200.11 L 345.13 202.971 L 346.293 205.166 C 346.934 206.372 348.584 208.544 349.964 209.993 C 351.343 211.439 353.149 213.373 353.977 214.285 C 356.2 216.731 361.074 221.057 362.674 222.001 C 364.716 223.21 364.806 224.501 363.079 227.924 C 362.246 229.572 361.564 231.145 361.564 231.419 C 361.564 232.385 365.885 240.635 371.815 251 C 375.759 257.893 377.943 261.732 379.773 264.997 C 380.789 266.81 382.093 268.958 382.672 269.771 C 383.25 270.583 384.251 272.442 384.897 273.903 C 385.541 275.364 386.372 276.869 386.739 277.248 C 388.102 278.649 389.547 281.036 392.52 286.792 C 394.197 290.04 395.835 293.028 396.163 293.435 C 396.491 293.841 397.127 294.998 397.583 296.004 C 398.513 298.061 399.893 298.645 402.734 298.185 C 404.701 297.866 413.106 293.798 414.513 292.484 C 415.002 292.031 417.482 290.256 420.028 288.545 C 425.123 285.115 427.897 282.556 430.294 279.067 C 432.014 276.567 435.805 268.998 435.805 268.063 C 435.805 267.747 436.22 266.186 436.727 264.593 C 438.117 260.231 438.479 253.47 437.498 250.139 C 436.709 247.461 436.487 246.504 434.98 239.314 C 434.189 235.547 433.266 233.261 432.036 232.03 C 431.658 231.65 430.911 230.489 430.382 229.447 C 429.85 228.405 427.664 225.781 425.523 223.616 C 421.022 219.063 415.411 215.475 409.236 213.207 C 406.948 212.367 404.47 211.455 403.729 211.183 C 402.11 210.586 385.636 210.933 380.182 211.682 C 378.01 211.978 375.025 212.832 373.106 213.701 C 371.281 214.53 369.371 215.208 368.862 215.208 C 367.209 215.208 360.863 204.018 358.929 197.692 C 356.114 188.49 356.077 188.339 354.635 179.509 C 353.742 174.031 354.694 162.088 356.608 154.751 C 358.832 146.239 363.998 138.783 369.497 136.15 C 375.194 133.422 377.552 132.498 379.51 132.231 C 381.759 131.921 389.029 133.148 391.781 134.298 C 394.237 135.325 393.839 134.635 400.162 148.86 C 401.916 152.8 406.614 160.666 407.765 161.58 C 407.934 161.715 408.609 162.602 409.262 163.548 C 409.917 164.495 411.242 166.045 412.205 166.991 C 413.168 167.939 414.497 169.489 415.155 170.437 C 416.642 172.575 416.952 172.888 419.088 174.37 C 420.034 175.026 421.362 176.135 422.039 176.832 C 422.715 177.53 424.041 178.638 424.989 179.296 C 425.933 179.952 427.481 181.279 428.43 182.243 C 429.378 183.209 430.926 184.534 431.87 185.188 C 432.818 185.844 433.703 186.524 433.837 186.704 C 434.168 187.144 447.041 195.55 449.035 196.629 C 450.593 197.475 450.717 198.481 449.259 198.481 C 448.227 198.481 441.525 196.196 439.332 195.095 C 438.338 194.599 436.862 194.036 436.049 193.844 C 435.241 193.656 433.785 192.984 432.822 192.353 C 431.857 191.722 429.644 190.486 427.904 189.611 C 424.946 188.119 420.627 185.413 420.073 184.701 C 419.936 184.527 418.386 183.42 416.629 182.243 C 414.871 181.066 413.322 179.961 413.188 179.783 C 413.053 179.608 411.504 178.501 409.748 177.324 C 407.99 176.147 406.442 175.046 406.306 174.878 C 406.17 174.709 405.284 174.038 404.337 173.388 C 403.393 172.737 402.508 172.075 402.371 171.913 C 402.236 171.751 401.352 171.08 400.405 170.421 C 399.46 169.761 397.96 168.501 397.073 167.618 C 396.188 166.737 394.639 165.592 393.633 165.076 C 392.625 164.559 391.277 163.675 390.634 163.116 C 388.439 161.199 384.711 159.042 383.873 159.203 C 382.798 159.413 381.582 164.864 381.914 167.975 C 382.736 175.673 384.136 180.345 387.743 187.409 C 391.47 194.707 393.229 196.866 397.949 199.918 C 402.451 202.829 403.862 203.18 406.948 202.153 C 410.561 200.952 414.791 200.426 423.246 200.123 C 431.836 199.817 433.396 200.148 436.211 202.883 C 437.522 204.155 438.852 204.934 440.079 205.15 C 441.885 205.466 443.803 206.421 444.967 207.582 C 445.278 207.89 446.862 209.004 448.492 210.06 C 450.118 211.116 451.809 212.584 452.247 213.324 C 452.682 214.063 453.753 215.166 454.624 215.776 C 456.712 217.237 457.822 218.504 458.968 220.736 C 459.487 221.747 460.931 223.597 462.182 224.848 C 463.431 226.1 465.277 228.593 466.281 230.39 C 467.285 232.187 468.915 234.972 469.901 236.581 C 470.888 238.189 471.699 239.849 471.705 240.271 C 471.71 240.691 472.262 242.587 472.931 244.481 C 473.686 246.617 474.15 249.004 474.15 250.766 C 474.152 253.009 474.426 254.016 475.452 255.57 C 476.628 257.349 476.777 258.098 476.996 263.459 C 477.146 267.136 477.043 269.791 476.718 270.461 C 476.433 271.056 476.074 272.599 475.922 273.89 C 475.768 275.183 474.866 277.707 473.915 279.499 C 472.749 281.698 472.186 283.417 472.186 284.775 C 472.186 286.249 471.838 287.19 470.895 288.269 C 470.185 289.081 469.288 290.486 468.902 291.39 C 468.074 293.331 464.805 298.353 464.37 298.353 C 464.203 298.353 463.147 299.225 462.018 300.287 C 460.891 301.35 459.384 302.601 458.673 303.068 C 457.962 303.535 456.932 304.798 456.382 305.876 C 454.838 308.906 450.28 312.9 444.544 316.254 C 442.745 317.304 440.32 319.028 439.157 320.083 C 437.207 321.846 435.89 322.439 432.274 323.179 C 431.549 323.327 430.665 323.734 430.308 324.086 C 428.647 325.717 424.671 328.042 421.698 329.119 C 419.898 329.773 417.743 330.94 416.912 331.71 C 416.082 332.478 414.442 333.522 413.267 334.03 L 411.134 334.951 L 411.408 342.114 C 411.559 346.051 411.691 349.608 411.703 350.014 C 411.794 353.35 410.666 366.2 410.039 368.956 C 409.608 370.85 409.256 373.083 409.256 373.916 C 409.256 374.749 408.796 376.964 408.236 378.835 C 407.675 380.709 406.556 384.452 405.748 387.159 C 404.939 389.866 403.823 393.075 403.269 394.293 C 402.712 395.511 401.857 397.761 401.365 399.295 C 400.873 400.829 400.142 402.723 399.741 403.502 C 399.336 404.282 398.529 406.346 397.941 408.093 C 396.919 411.133 389.857 426.968 389.065 427.998 C 388.853 428.272 387.095 431.592 385.156 435.379 C 383.214 439.166 380.731 443.813 379.634 445.707 C 378.537 447.6 376.742 450.7 375.646 452.594 C 372.911 457.315 365.101 469.02 363.675 470.541 C 363.032 471.224 361.696 473 360.704 474.487 C 359.715 475.977 357.892 478.191 356.657 479.408 C 355.421 480.626 353.865 482.396 353.198 483.344 C 351.637 485.57 347.54 489.664 345.34 491.199 C 344.395 491.859 343.288 492.759 342.883 493.203 C 342.478 493.645 340.415 495.15 338.299 496.547 C 335.145 498.632 334.068 499.088 332.306 499.088 L 330.159 499.088 L 329.846 496.99 C 329.611 495.427 329.805 494.204 330.604 492.191 C 331.191 490.709 332.331 487.392 333.129 484.819 C 333.93 482.25 335.82 476.936 337.33 473.011 C 340.003 466.069 340.951 463.852 347.257 449.794 C 348.92 446.091 350.842 441.329 351.526 439.217 C 352.213 437.103 353.419 434.228 354.205 432.826 C 354.989 431.427 355.898 429.212 356.222 427.908 C 356.547 426.603 357.782 423.211 358.966 420.37 C 361.557 414.152 363.829 407.386 369.207 389.866 C 373.71 375.201 374.403 371.304 374.458 360.346 C 374.481 355.881 374.33 350.081 374.121 347.457 C 373.759 342.921 373.664 342.618 372.156 341.243 C 369.764 339.066 368.794 338.697 365.438 338.697 C 359.591 338.697 348.967 336.442 342.433 333.814 C 340.146 332.896 339.674 332.841 339.079 333.437 C 338.488 334.03 338.505 334.674 339.213 338.012 C 340.139 342.395 340.724 346.442 341.519 353.949 C 342.289 361.235 342.287 383.107 341.515 389.127 C 341.168 391.834 340.682 396.039 340.437 398.475 C 340.191 400.911 339.625 404.12 339.176 405.61 C 338.727 407.096 338.044 409.753 337.66 411.513 C 337.275 413.272 336.3 416.427 335.498 418.524 C 334.692 420.621 333.336 424.163 332.483 426.396 C 329.213 434.952 321.502 450.543 319.589 452.47 C 319.253 452.809 318.252 454.449 317.366 456.116 C 316.478 457.782 315.377 459.555 314.914 460.053 C 314.452 460.552 313.103 462.398 311.914 464.157 C 310.728 465.915 308.748 468.422 307.515 469.73 C 306.282 471.035 304.967 472.608 304.588 473.223 C 304.212 473.838 303.078 474.854 302.066 475.478 C 301.055 476.105 299.858 477.246 299.402 478.018 C 298.947 478.789 297.677 479.878 296.584 480.435 C 295.489 480.995 293.817 482.23 292.864 483.183 C 290.859 485.19 282.859 489.247 280.91 489.247 C 278.106 489.247 278.158 488.308 281.339 481.271 C 282.963 477.675 284.663 473.517 285.116 472.027 C 285.571 470.541 286.378 468.609 286.912 467.738 C 287.446 466.863 288.429 464.105 289.099 461.603 C 289.767 459.103 290.495 456.938 290.715 456.794 C 291.495 456.277 292.244 454.356 292.244 452.863 C 292.244 452.028 292.792 449.997 293.463 448.346 C 294.131 446.697 294.813 444.543 294.978 443.56 C 295.141 442.576 295.695 440.441 296.208 438.817 C 297.695 434.108 299.128 427.463 299.128 425.277 C 299.128 424.17 299.333 422.337 299.581 421.203 C 299.831 420.067 300.279 417.479 300.577 415.448 C 300.877 413.42 301.309 410.652 301.543 409.298 C 301.774 407.945 301.788 404.956 301.572 402.655 C 301.26 399.311 301.364 397.688 302.083 394.538 C 302.58 392.375 303.242 388.943 303.554 386.912 C 303.863 384.884 304.349 382.226 304.627 381.01 C 305.173 378.626 305.249 349.296 304.713 348.426 C 304.333 347.813 303.469 337.83 303.538 334.904 C 303.565 333.765 303.249 331.519 302.833 329.913 C 302.419 328.307 302.072 326.029 302.068 324.852 C 302.066 323.672 301.601 321.047 301.042 319.019 C 300.484 316.988 299.629 313.581 299.147 311.444 C 298.218 307.347 297.33 306.121 293.226 303.275 C 290.487 301.375 288.854 299.398 288.318 297.325 C 288.044 296.267 287.579 294.461 287.288 293.311 C 286.994 292.161 286.435 290.225 286.043 289.007 C 285.653 287.79 284.474 282.698 283.427 277.691 C 278.754 255.397 274.143 241.444 267.009 228 C 265.072 224.346 263.182 220.75 262.81 220.004 C 262.435 219.26 261.822 218.652 261.444 218.652 C 260.545 218.652 260.904 220.049 263.342 226.03 C 266.955 234.901 270.939 247.921 273.133 258.012 C 273.398 259.229 274.085 262.389 274.664 265.036 L 275.712 269.845 L 274.637 272.06 C 273.32 274.776 273.312 275.364 274.544 281.134 C 275.676 286.428 275.79 289.171 274.913 289.863 C 274.576 290.13 273.359 290.492 272.21 290.667 C 269.581 291.069 265.433 292.891 262.413 294.971 C 259.726 296.819 253.709 302.721 251.942 305.243 C 251.277 306.189 250.446 307.257 250.098 307.617 C 249.751 307.976 249.237 308.698 248.958 309.216 C 248.085 310.851 246.726 310.323 245.041 307.693 C 244.169 306.335 242.815 304.538 242.031 303.698 C 241.247 302.858 240.247 301.563 239.809 300.82 C 239.372 300.079 238.436 299.129 237.728 298.711 C 237.022 298.291 235.827 297.419 235.077 296.77 C 231.652 293.819 224.588 290.483 221.764 290.483 C 220.409 290.483 219.23 289.317 219.744 288.484 C 219.937 288.174 220.279 285.894 220.503 283.419 C 220.728 280.946 221.056 277.909 221.233 276.671 C 221.488 274.894 221.331 273.982 220.494 272.34 L 219.434 270.26 L 220.414 265.735 C 223.361 252.104 223.392 251.981 226.121 242.021 C 227.865 235.669 230.954 227.266 233.457 222.074 C 234.139 220.659 234.579 219.31 234.436 219.076 C 234.002 218.375 233.235 218.595 232.914 219.512 C 232.746 219.985 232.115 221.044 231.513 221.861 C 230.042 223.856 224.747 234.474 222.864 239.205 C 221.399 242.881 217.575 254.416 215.651 260.963 C 214.57 264.632 212.074 275.267 210.682 282.118 C 209.419 288.349 207.022 297.318 206.214 298.846 C 205.506 300.184 203.749 301.826 200.306 304.364 C 197.814 306.2 195.882 309.538 195.882 312.003 C 195.882 312.902 195.531 314.461 195.104 315.467 C 194.674 316.473 194.113 318.626 193.855 320.248 C 193.599 321.871 193.161 324.528 192.881 326.152 C 191.016 337.031 190.318 347.258 190.281 364.281 C 190.247 379.792 190.727 387.089 191.922 389.324 C 192.831 391.028 193.549 396.811 193.943 405.61 C 194.4 415.895 195.06 422.348 196.132 427.012 C 196.564 428.905 197.551 433.332 198.321 436.849 C 200.045 444.721 201.181 448.706 203.518 455.055 C 204.511 457.76 205.767 461.302 206.306 462.926 C 207.565 466.729 214.424 483.052 215.598 485.042 C 216.092 485.88 216.56 487.335 216.635 488.276 C 216.766 489.861 216.679 489.979 215.444 489.896 C 213.284 489.75 206.041 486.098 204.137 484.193 C 203.173 483.227 201.414 481.945 200.236 481.342 C 199.059 480.743 197.762 479.885 197.357 479.438 C 196.95 478.988 195.873 478.101 194.962 477.463 C 192.76 475.922 189.51 472.358 188.191 470.037 C 187.609 469.007 186.116 467.149 184.875 465.909 C 183.636 464.666 182.196 462.825 181.678 461.814 C 181.159 460.801 180.277 459.449 179.716 458.804 C 179.155 458.162 177.995 456.502 177.135 455.116 C 176.278 453.728 174.507 450.929 173.2 448.892 C 171.896 446.854 170.246 443.755 169.535 442.004 C 168.822 440.253 167.84 438.253 167.348 437.561 C 166.208 435.96 161.783 424.915 159.97 419.139 C 155.954 406.358 154.843 401.36 153.512 390.111 C 152.78 383.95 152.813 362.718 153.56 356.164 C 153.872 353.458 154.318 349.14 154.555 346.571 C 154.794 343.998 155.234 340.355 155.535 338.471 C 156.385 333.151 156.246 333.06 150.291 335.061 C 148.19 335.768 145.144 336.553 143.521 336.804 C 141.899 337.056 139.354 337.481 137.867 337.75 C 136.379 338.017 132.949 338.525 130.247 338.875 C 125.331 339.513 123.407 340.231 122.831 341.641 C 121.664 344.488 121.168 349.634 121.079 359.794 C 121.004 368.733 121.14 371.503 121.779 373.875 C 122.218 375.499 122.915 378.487 123.331 380.517 C 124.142 384.471 126.381 392.04 128.283 397.244 C 128.925 399.003 129.694 401.439 129.995 402.655 C 130.297 403.875 131.182 406.53 131.97 408.561 C 132.755 410.589 133.752 413.469 134.191 414.956 C 134.626 416.446 135.436 418.661 135.991 419.877 C 136.543 421.095 137.389 423.308 137.869 424.797 C 139.162 428.806 141.146 433.834 143.4 438.817 C 144.503 441.255 146.453 445.792 147.737 448.905 C 149.019 452.016 151.102 456.885 152.366 459.727 C 155.941 467.776 159.465 476.749 161.059 481.868 C 161.86 484.438 163.274 488.539 164.201 490.979 C 166.093 495.949 166.116 496.086 165.322 497.834 C 164.825 498.924 164.453 499.083 162.493 499.05 C 160.699 499.021 159.782 498.659 158.024 497.295 L 158.021 497.295 Z M 356.347 305.944 C 356.657 305.135 356.119 303.807 355.03 302.697 C 353.937 301.583 351.473 297.758 349.774 294.542 C 348.882 292.851 348 291.467 347.814 291.467 C 347.627 291.467 346.956 290.36 346.323 289.007 C 345.691 287.652 345.006 286.545 344.801 286.545 C 344.348 286.545 341.405 280.734 341.405 279.836 C 341.405 278.726 338.906 271.673 337.599 269.09 C 336.278 266.482 329.892 256.761 328.739 255.6 C 328.361 255.22 327.551 253.773 326.937 252.382 C 326.318 250.985 325.197 249.447 324.424 248.942 C 322.499 247.68 315.612 240.651 314.57 238.881 C 313.561 237.176 312.001 236.363 309.731 236.363 C 307.934 236.363 307.527 236.981 306.478 241.314 C 305.898 243.723 305.676 242.897 309.744 253.459 C 313.083 262.113 313.902 265.373 313.57 268.631 C 313.271 271.547 313.347 271.893 314.803 274.162 C 315.658 275.494 316.763 277.053 317.261 277.63 C 317.763 278.205 319.028 280.152 320.079 281.958 C 322.008 285.274 332.014 295.906 335.506 298.349 C 336.453 299.01 337.528 299.845 337.899 300.204 C 339.044 301.318 344.031 303.648 347.09 304.499 C 348.695 304.944 351.005 305.606 352.222 305.97 C 355.21 306.862 355.998 306.855 356.347 305.946 L 356.347 305.944 Z M 148.193 305.031 C 153.371 302.927 159.018 299.227 162.9 295.402 C 164.956 293.373 167.709 290.838 169.019 289.768 C 171.458 287.769 174.235 284.056 176.209 280.15 C 176.825 278.932 177.478 277.826 177.662 277.691 C 177.846 277.556 178.744 276.348 179.657 275.009 C 181.189 272.754 181.32 272.248 181.44 268.239 C 181.509 265.855 181.715 263.67 181.892 263.381 C 182.196 262.888 184.329 257.033 187.52 247.924 C 188.844 244.146 188.874 243.865 188.253 240.891 C 187.442 237.026 186.9 236.363 184.536 236.363 C 182.933 236.363 182.451 236.637 181.278 238.208 C 180.523 239.222 177.328 242.598 174.176 245.712 C 170.906 248.942 167.982 252.302 167.362 253.544 C 166.762 254.741 165.115 257.508 163.699 259.694 C 155.256 272.72 154.5 274.184 153.582 279.252 C 153.274 280.941 152.677 282.997 152.253 283.819 C 151.005 286.246 145.737 293.926 144.266 295.467 C 143.521 296.249 142.521 297.938 142.045 299.22 C 141.567 300.504 140.763 302.242 140.258 303.086 C 138.651 305.766 138.949 306.227 142.299 306.227 C 144.295 306.227 146.211 305.838 148.193 305.031 Z M 304.989 214.487 C 307.909 212.975 307.172 210.354 303.356 208.674 C 298.147 206.379 286.493 200.53 285.819 199.874 C 285.432 199.494 284.337 198.649 283.391 197.995 C 282.446 197.34 281.339 196.45 280.933 196.019 C 279.691 194.699 277.136 193.068 276.309 193.068 C 275.195 193.068 275.319 194.936 276.571 197.003 C 277.146 197.951 277.764 198.835 277.945 198.97 C 278.127 199.107 278.816 199.993 279.474 200.94 C 280.993 203.123 283.16 205.294 285.359 206.834 C 286.304 207.5 287.379 208.333 287.748 208.692 C 289.391 210.289 300.192 215.128 302.222 215.175 C 302.98 215.192 304.223 214.883 304.989 214.487 Z M 200.757 212.25 C 207.125 209.132 209.641 207.405 213.332 203.611 C 216.407 200.448 220.086 194.803 219.857 193.6 C 219.668 192.619 218.73 192.414 217.937 193.185 C 217.567 193.543 216.49 194.374 215.545 195.028 C 214.597 195.682 213.491 196.571 213.087 197.003 C 212.68 197.434 211.574 198.324 210.627 198.979 C 209.681 199.633 208.607 200.462 208.239 200.819 C 207.292 201.74 203.958 203.364 196.866 206.358 C 193.487 207.787 190.349 209.186 189.894 209.472 C 188.623 210.265 187.92 212.149 188.494 213.225 C 189.147 214.44 189.732 214.631 192.973 214.676 C 195.317 214.71 196.46 214.352 200.757 212.25 Z M 196.75 203.413 C 199.509 202.108 204.079 199.288 204.728 198.488 C 204.863 198.322 205.747 197.645 206.694 196.985 C 208.911 195.437 214.289 190.064 215.057 188.631 C 215.413 187.966 215.525 186.751 215.337 185.585 C 214.987 183.384 212.634 177.935 211.558 176.83 C 211.163 176.425 210.299 175.318 209.637 174.372 C 206.714 170.196 203.357 167.842 200.32 167.842 C 199.289 167.842 197.096 168.589 194.944 169.674 C 190.47 171.929 183.444 178.752 182.562 181.699 C 181.781 184.31 182.24 195.599 183.253 198.726 C 183.691 200.078 184.736 202.016 185.575 203.03 C 187.061 204.826 187.188 204.876 190.382 204.876 C 193.002 204.876 194.291 204.58 196.75 203.413 Z M 309.702 202.623 C 312.31 199.193 312.989 196.061 312.804 188.276 L 312.644 181.468 L 310.695 178.454 C 309.62 176.796 308.167 175.1 307.464 174.685 C 306.759 174.269 305.361 173.173 304.353 172.252 C 301.855 169.961 295.267 167.389 293.325 167.946 C 290.329 168.806 288.614 170.143 286.344 173.388 C 285.68 174.334 284.731 175.552 284.23 176.093 C 283.178 177.234 280.172 183.33 279.685 185.318 C 279.501 186.063 279.49 187.216 279.655 187.881 C 279.988 189.204 285.557 195.071 288.31 197 C 289.256 197.663 290.401 198.546 290.854 198.957 C 292.37 200.338 296.946 202.906 299.649 203.89 C 301.42 204.534 303.31 204.821 305.249 204.746 C 308.043 204.635 308.245 204.538 309.702 202.623 Z M 197.159 158.116 C 200.359 156.843 204.863 154.269 205.711 153.224 C 205.845 153.058 206.732 152.384 207.678 151.723 C 209.861 150.204 212.03 148.038 213.569 145.836 C 214.232 144.888 215.022 143.858 215.324 143.544 C 216.443 142.386 218.876 138.168 219.181 136.857 C 219.619 134.981 218.8 135.158 217.162 137.297 C 214.826 140.349 207.547 147.562 205.219 149.132 C 199.34 153.096 194.304 154.691 187.666 154.691 C 182.954 154.691 181.381 155.284 181.692 156.94 C 182.003 158.604 184.886 159.61 189.349 159.61 C 192.704 159.612 194.037 159.356 197.159 158.116 Z M 311.415 158.75 C 312.36 158.276 313.213 157.463 313.311 156.94 C 313.623 155.264 312.054 154.691 307.152 154.691 C 303.536 154.691 301.791 154.426 298.766 153.409 C 294.64 152.025 291.754 150.679 290.694 149.649 C 290.329 149.293 289.253 148.458 288.31 147.793 C 287.362 147.13 284.8 144.797 282.619 142.611 C 279.658 139.646 278.175 137.673 276.782 134.855 C 274.971 131.187 274.051 130.197 274.051 131.915 C 274.051 133.013 278.567 142.222 280.035 144.114 C 283.069 148.029 288.899 153.217 292.923 155.589 C 299.424 159.417 307.366 160.776 311.415 158.75 Z M 193.886 145.839 C 199.009 145.113 203.575 142.768 206.941 139.138 C 208.205 137.773 213.325 129.626 215.001 126.313 C 217.112 122.135 213.644 118.219 205.936 116.079 C 196.084 113.345 196.746 113.442 192.689 114.147 C 190.609 114.509 187.988 115.333 186.864 115.977 C 178.163 120.966 178.014 121.139 176.169 128.271 C 175.234 131.883 175.234 131.877 176.522 138.84 C 176.834 140.52 181.405 144.758 183.507 145.317 C 187.46 146.371 189.272 146.708 189.927 146.51 C 190.305 146.398 192.086 146.095 193.886 145.839 Z M 308.337 145.854 C 311.073 145.547 312.467 145.087 314.375 143.86 C 315.738 142.986 317.061 141.881 317.316 141.405 C 319.206 137.872 320.011 130.228 318.899 126.402 C 317.286 120.863 310.288 115.699 302.183 114.064 C 297.837 113.188 298.719 113.053 288.554 116.142 C 285.939 116.937 281.88 119.313 280.369 120.933 C 278.897 122.516 279.286 124.457 282.155 129.81 C 286.131 137.227 290.652 142.229 295.192 144.235 C 297.775 145.376 303.202 146.762 304.041 146.493 C 304.446 146.364 306.38 146.077 308.337 145.854 Z M 215.249 98.79 C 220.894 97.658 224.797 95.76 227.81 92.68 C 230.889 89.533 230.586 88.547 226.97 89.958 C 222.124 91.849 219.004 92.338 203.744 93.598 C 198.795 94.01 197.218 94.56 196.347 96.187 C 195.665 97.467 196.401 98.439 198.521 99.055 C 201.126 99.81 210.938 99.655 215.249 98.79 Z M 295.588 99.032 C 298.606 98.304 299.399 97.577 298.67 96.213 C 297.564 94.144 297.303 94.089 282.408 92.743 C 276.611 92.219 273.057 91.51 269.6 90.185 C 268.127 89.621 266.424 89.044 265.816 88.905 C 264.13 88.518 264.414 89.978 266.415 91.98 C 269.76 95.326 272.837 96.823 280.933 99.03 C 283.367 99.695 292.838 99.695 295.588 99.032 Z M 208.17 88.817 C 214.174 88.19 217.096 87.352 221.112 85.103 C 224.692 83.1 226.53 81.526 228.324 78.925 C 228.974 77.979 229.872 76.871 230.317 76.465 C 232.4 74.56 232.44 73.664 230.624 69.836 C 227.717 63.711 223.408 60.697 217.037 60.337 C 213.76 60.153 212.89 60.306 209.497 61.66 C 207.387 62.503 205.159 63.52 204.542 63.924 C 203.925 64.329 202.288 64.996 200.905 65.409 C 198.944 65.991 197.631 66.905 194.946 69.562 C 191.105 73.359 189.943 75.304 188.743 79.928 C 188.043 82.633 188.014 83.516 188.532 86.049 C 188.867 87.678 189.246 89.201 189.377 89.432 C 189.647 89.917 201.269 89.538 208.17 88.817 Z M 306.336 87.904 C 308.232 83.361 305.91 75.667 301.049 70.388 C 297.806 66.871 296.208 65.921 288.062 62.673 C 281.956 60.24 281.505 60.138 277.983 60.341 C 275.809 60.467 273.591 60.914 272.576 61.433 C 268.921 63.295 263.233 70.272 263.233 72.886 C 263.233 73.738 265.196 76.997 266.51 78.327 C 266.852 78.675 267.492 79.569 267.93 80.311 C 268.726 81.663 272.499 84.322 276.331 86.235 C 278.686 87.413 284.607 88.742 287.818 88.815 C 289.035 88.841 290.583 89.042 291.258 89.257 C 291.934 89.473 295.43 89.672 299.027 89.699 L 305.565 89.749 L 306.336 87.904 Z" id="path128"/>
</svg>